<?xml version="1.0" encoding="UTF-8"?>
<svg version="1.1" xmlns="http://www.w3.org/2000/svg" width="512" height="512">
<path d="M0 0 C4.02703631 3.72109539 4.8263967 7.54878146 5.3125 12.8125 C5.38807129 13.55588623 5.46364258 14.29927246 5.54150391 15.06518555 C6.78643524 29.12043062 6.35612836 43.90227628 -2.875 55.3125 C-9.65987143 62.25360202 -18.32909597 66.43180669 -27.8125 68.1875 C-34.45151266 69.84725316 -37.39293368 74.3945198 -40.84667969 80.04541016 C-55.65240009 105.13740795 -65.45445465 131.80634768 -58.47314453 161.21972656 C-56.27819465 169.67127559 -53.45755972 177.87614737 -50.34765625 186.03125 C-49.88875 187.23740967 -49.42984375 188.44356934 -48.95703125 189.6862793 C-48.04263967 192.06398556 -47.11216612 194.43558302 -46.1640625 196.80004883 C-42.19356656 207.03629509 -42.19356656 207.03629509 -44 213 C-45.73687782 215.89479637 -47.05152682 216.01335881 -50.375 216.875 C-54.63918735 217.02204094 -55.73148343 216.67977756 -59 214 C-60.6411475 211.17190282 -61.74585623 208.18744542 -62.875 205.125 C-63.37990967 203.8097937 -63.37990967 203.8097937 -63.89501953 202.46801758 C-68.4279433 190.49664021 -72.57077392 178.33522584 -76 166 C-76.78375 166.763125 -77.5675 167.52625 -78.375 168.3125 C-82.38395265 171.7046907 -86.98057454 172.77986298 -92 174 C-91.06393428 186.1319044 -89.55766795 197.33646215 -86 209 C-74.07754408 248.83569396 -69.901426 292.35447241 -89.97192383 330.59594727 C-90.96102638 332.40965294 -91.97345405 334.20726767 -93 336 C-93.56589844 337.00417969 -94.13179688 338.00835937 -94.71484375 339.04296875 C-107.96576143 361.1486173 -129.57629943 373.81838157 -154 380 C-159.98045041 381.28046772 -165.96164419 381.93456273 -172.0546875 382.3828125 C-187.78314564 383.57493814 -201.77982517 386.59791441 -212.77124023 398.99829102 C-219.83661396 407.94952524 -224.01000115 418.31766743 -228.5625 428.6875 C-229.38099579 430.52591004 -230.200651 432.36380435 -231.02148438 434.20117188 C-234.06666018 441.03328386 -237.09585173 447.87163982 -240.03588867 454.74975586 C-240.35093857 455.48285477 -240.66598846 456.21595367 -240.99058533 456.9712677 C-241.56943389 458.3212405 -242.14345919 459.67329712 -242.71144104 461.02787781 C-246.14053838 469.01829687 -250.26495763 472.44044048 -258.125 475.875 C-265.42318265 478.73740411 -271.92530729 479.20840754 -279.6875 479.25 C-281.10192383 479.2809375 -281.10192383 479.2809375 -282.54492188 479.3125 C-292.55703081 479.3675494 -300.91959012 477.00089263 -309 471 C-309.66 470.34 -310.32 469.68 -311 469 C-312.93922394 469.33688677 -312.93922394 469.33688677 -315 470 C-329.5905962 470.89810935 -343.3853068 469.91994225 -355 460 C-361.48165569 453.55503293 -361.48165569 453.55503293 -363 449 C-363.82242188 448.96261719 -364.64484375 448.92523438 -365.4921875 448.88671875 C-380.24859929 448.01769219 -392.61156209 443.93281021 -403 433 C-406.07759236 429.11004823 -407.99301273 425.73872967 -408.6875 420.8125 C-409.26093588 417.96202263 -409.67374838 417.22029467 -412.12890625 415.5625 C-413.8960457 414.71975093 -415.67811189 413.9076994 -417.47265625 413.125 C-426.29217593 409.19915507 -431.81021888 400.34113532 -435.375 391.6875 C-439.07902503 381.94430374 -439.26404601 372.21683876 -435.328125 362.515625 C-431.79766975 355.82852741 -426.96003228 352.60893785 -420 350 C-417.68085681 349.39158177 -415.34208448 348.85491264 -412.9921875 348.37890625 C-411.95936142 348.16820496 -411.95936142 348.16820496 -410.90567017 347.95324707 C-408.5639341 347.47998795 -406.21979805 347.0203353 -403.875 346.5625 C-403.03799561 346.39692596 -402.20099121 346.23135193 -401.33862305 346.0607605 C-360.75778764 338.05367665 -319.89061509 331.36090868 -279.0625 324.75 C-277.86737793 324.55528107 -276.67225586 324.36056213 -275.44091797 324.15994263 C-272.09817496 323.61682833 -268.75442218 323.08052162 -265.41015625 322.546875 C-264.43534805 322.388134 -263.46053986 322.22939301 -262.45619202 322.06584167 C-257.92138476 321.35124186 -253.60893842 320.81033569 -249 321 C-248.61328125 319.94039063 -248.61328125 319.94039063 -248.21875 318.859375 C-246.9010213 315.76778074 -245.30653164 313.08227419 -243.5 310.25 C-242.8915625 309.28578125 -242.283125 308.3215625 -241.65625 307.328125 C-240 305 -240 305 -238 304 C-236.88625 304.103125 -235.7725 304.20625 -234.625 304.3125 C-233.42875 304.209375 -232.2325 304.10625 -231 304 C-228.7501209 301.05259446 -228.7501209 301.05259446 -227 298 C-228.670625 298.59748047 -228.670625 298.59748047 -230.375 299.20703125 C-254.39269201 307.63326696 -281.47661574 312.0855625 -305.68359375 301.8671875 C-310.84125589 299.3095291 -314.87059013 295.87206164 -318 291 C-318 290.34 -318 289.68 -318 289 C-318.66 289.33 -319.32 289.66 -320 290 C-344.55943632 291.98593825 -371.2910412 286.70251247 -391 271.0625 C-395.59924959 266.78359615 -399.40197402 261.37894378 -400 255 C-400.78375 254.79375 -401.5675 254.5875 -402.375 254.375 C-411.75240644 250.81805273 -418.82772784 244.86556315 -426 238 C-426.70125 237.37351563 -427.4025 236.74703125 -428.125 236.1015625 C-437.94734786 227.00821702 -444.8068227 214.66210997 -446.3046875 201.27734375 C-446.42473068 196.96245832 -445.86824836 193.33035696 -444.6875 189.1875 C-444.08501884 187.02157928 -444.08501884 187.02157928 -444 185 C-445.95524698 182.20913543 -445.95524698 182.20913543 -449 180 C-459.55260165 169.67252052 -463.91655676 155.43576754 -464.375 140.9375 C-464.16145052 133.34124002 -462.95059874 125.38103781 -459.125 118.75 C-457.60921654 115.04475153 -458.56551959 113.14160976 -460.04296875 109.5390625 C-466.2140038 93.16692868 -464.13537774 73.48311868 -457.1640625 57.66796875 C-448.288111 38.73606343 -448.288111 38.73606343 -440 34 C-437.2079395 33.45298406 -434.76245275 33.28845914 -432 34 C-428.45447319 36.45332892 -425.95724184 39.13965603 -423.375 42.5625 C-412.32685111 56.30351991 -399.32540831 68.72617864 -385 79 C-383.93652344 79.7734375 -382.87304688 80.546875 -381.77734375 81.34375 C-368.83684966 90.52631203 -355.27318782 98.11660982 -341 105 C-340.58427734 103.84371094 -340.58427734 103.84371094 -340.16015625 102.6640625 C-339.79792969 101.66117187 -339.43570313 100.65828125 -339.0625 99.625 C-338.70285156 98.62726563 -338.34320313 97.62953125 -337.97265625 96.6015625 C-337 94 -337 94 -336 92 C-336.30035156 91.3090625 -336.60070312 90.618125 -336.91015625 89.90625 C-340.44347318 80.48407153 -338.68395961 68.04505524 -334.6796875 59.09765625 C-329.35218756 49.2727552 -322.7461345 38.46220442 -312 34 C-309.78125 33.62890625 -309.78125 33.62890625 -307.5 33.5625 C-306.37078125 33.50255859 -306.37078125 33.50255859 -305.21875 33.44140625 C-301.78796358 34.30514297 -300.92539055 36.0630273 -299 39 C-297.40401353 42.03893819 -295.95886057 45.14348515 -294.5 48.25 C-283.24741349 71.39274922 -266.11841896 91.11554209 -246 107 C-245.34708984 107.51868652 -244.69417969 108.03737305 -244.02148438 108.57177734 C-235.27600413 115.50764057 -226.41651093 122.20913602 -217.26416016 128.59863281 C-207.11655464 135.69086768 -197.17703819 143.04315949 -187.6875 151 C-187.15415039 151.44480713 -186.62080078 151.88961426 -186.07128906 152.34790039 C-179.14531567 158.25621201 -179.14531567 158.25621201 -178.75 163 C-178.95625078 165.47500934 -179.27232103 167.63504335 -180 170 C-179.34 170 -178.68 170 -178 170 C-177.69819824 168.90123535 -177.39639648 167.8024707 -177.08544922 166.67041016 C-175.94864658 162.54731333 -174.79210018 158.42996293 -173.62988281 154.31396484 C-173.13206912 152.5407048 -172.63943444 150.76598153 -172.15234375 148.98974609 C-168.44585121 135.49294847 -164.57902953 122.90694579 -153 114 C-142.51269104 108.15270707 -131.71905401 106.10690515 -119.8515625 108.68359375 C-109.82793431 112.06691923 -101.68590029 118.3867752 -96.51953125 127.65625 C-92.97199291 135.20843246 -92.39997611 141.73300422 -93 150 C-88.35908241 152.55250467 -84.10424357 153.78721485 -79 155 C-79.02320313 153.89785156 -79.04640625 152.79570312 -79.0703125 151.66015625 C-79.51265911 121.51691555 -72.36612233 90.45141902 -52.9375 66.625 C-49.22541903 61.90253283 -49.22541903 61.90253283 -48.875 56.125 C-49.20377311 54.73822019 -49.57411054 53.36009859 -50 52 C-52.08313474 41.58432628 -52.0411513 31.00005695 -46.62890625 21.625 C-39.94214479 12.13204368 -29.50020193 7.27206427 -19 3 C-17.84177734 2.51853516 -17.84177734 2.51853516 -16.66015625 2.02734375 C-11.43234753 0.05198545 -5.52188868 -1.44961499 0 0 Z M-78 156 C-77 158 -77 158 -77 158 Z " fill="#EBEEF0" transform="translate(479,16)"/>
<path d="M0 0 C3.54552681 2.45332892 6.04275816 5.13965603 8.625 8.5625 C19.67314889 22.30351991 32.67459169 34.72617864 47 45 C48.06347656 45.7734375 49.12695312 46.546875 50.22265625 47.34375 C63.16315034 56.52631203 76.72681218 64.11660982 91 71 C91.41572266 69.84371094 91.41572266 69.84371094 91.83984375 68.6640625 C92.20207031 67.66117187 92.56429687 66.65828125 92.9375 65.625 C93.29714844 64.62726563 93.65679687 63.62953125 94.02734375 62.6015625 C95 60 95 60 96 58 C95.54947266 56.96359375 95.54947266 56.96359375 95.08984375 55.90625 C91.55652682 46.48407153 93.31604039 34.04505524 97.3203125 25.09765625 C102.64781244 15.2727552 109.2538655 4.46220442 120 0 C122.21875 -0.37109375 122.21875 -0.37109375 124.5 -0.4375 C125.62921875 -0.49744141 125.62921875 -0.49744141 126.78125 -0.55859375 C130.21203642 0.30514297 131.07460945 2.0630273 133 5 C134.59598647 8.03893819 136.04113943 11.14348515 137.5 14.25 C148.75258651 37.39274922 165.88158104 57.11554209 186 73 C186.65291016 73.51868652 187.30582031 74.03737305 187.97851562 74.57177734 C196.72399587 81.50764057 205.58348907 88.20913602 214.73583984 94.59863281 C224.88344536 101.69086768 234.82296181 109.04315949 244.3125 117 C244.84584961 117.44480713 245.37919922 117.88961426 245.92871094 118.34790039 C252.85468433 124.25621201 252.85468433 124.25621201 253.25 129 C253.04374922 131.47500934 252.72767897 133.63504335 252 136 C252.66 136 253.32 136 254 136 C254.30180176 134.90123535 254.60360352 133.8024707 254.91455078 132.67041016 C256.05135342 128.54731333 257.20789982 124.42996293 258.37011719 120.31396484 C258.86793088 118.5407048 259.36056556 116.76598153 259.84765625 114.98974609 C263.55414879 101.49294847 267.42097047 88.90694579 279 80 C289.48730896 74.15270707 300.28094599 72.10690515 312.1484375 74.68359375 C322.17206569 78.06691923 330.31409971 84.3867752 335.48046875 93.65625 C338.8830101 100.89975539 340.59047165 108.02492073 339 116 C336.4375 118.875 336.4375 118.875 333 120 C329.28450361 120 327.05719328 119.84575462 324.125 117.5 C323.00033051 115.00073447 322.84416457 113.5620348 322.6875 110.875 C322.16092621 104.96567196 319.85469798 100.47894057 316 96 C311.03592503 92.24749587 305.5608312 90.09469484 299.29296875 90.52734375 C292.66208197 91.89418753 287.90238952 94.45072577 283.91015625 99.9453125 C280.51471522 105.30525484 279.07907604 110.81236141 277.625 116.9375 C277.04459642 119.235448 276.45982135 121.53229549 275.87109375 123.828125 C275.57058105 125.00439453 275.27006836 126.18066406 274.96044922 127.39257812 C272.79708519 135.51811622 270.21036947 143.51986126 267.69921875 151.54296875 C267.40321777 152.49478027 267.1072168 153.4465918 266.80224609 154.42724609 C266.31821208 155.97951342 265.82816813 157.52994993 265.32666016 159.07666016 C263.24574462 165.74981522 263.76564421 170.08932323 266.5625 176.4375 C268.63648876 181.59015762 269.84142742 184.70589617 268 190 C266.9375 191.9375 266.9375 191.9375 265 193 C257.99630314 193.77818854 257.99630314 193.77818854 254.89453125 191.35546875 C252.69436898 188.62000926 251.75271658 186.19416582 250.625 182.875 C241.0020926 156.74734839 219.50426032 142.99267139 195.375 131.8125 C180.87317459 125.29345104 165.74809718 120.17173525 150.81298828 114.74902344 C96.50966782 95.02682057 35.55389436 71.3833617 -1.23828125 24.125 C-1.81964844 23.42375 -2.40101562 22.7225 -3 22 C-3.66 22 -4.32 22 -5 22 C-12.54744573 36.92391372 -17.15120073 52.22054875 -12.046875 68.78125 C-9.15787526 74.90420468 -4.43871408 78.05505065 1.0625 81.625 C1.85253418 82.14352539 2.64256836 82.66205078 3.45654297 83.19628906 C37.52762108 105.60574005 37.52762108 105.60574005 76.25 115.3125 C83.68979975 115.77849178 83.68979975 115.77849178 86.375 118.1875 C88.33620914 121.58190044 88.8019119 123.15082287 88 127 C85.28530775 130.49916605 83.79669468 131.85342197 79.390625 132.6640625 C78.01052212 132.68552443 76.6295191 132.67051512 75.25 132.625 C74.50484131 132.60953125 73.75968262 132.5940625 72.99194336 132.578125 C46.06871565 131.40152423 20.12618587 113.76429835 -1.79296875 99.6640625 C-5.46239819 97.31274507 -9.19604111 95.12618629 -13 93 C-15.65687042 104.03789258 -15.12455013 116.81083601 -10 127 C-5.07707348 134.74602655 0.62654062 139.66706446 9 143.4375 C9.66515625 143.73970459 10.3303125 144.04190918 11.015625 144.35327148 C13.00527407 145.24771177 15.00108328 146.12649797 17 147 C18.010625 147.44601563 19.02125 147.89203125 20.0625 148.3515625 C34.49132131 154.29961384 51.01761618 159.07972594 66.6640625 159.17578125 C68.13022304 159.19895769 69.59636896 159.2230741 71.0625 159.24804688 C73.35134035 159.28325602 75.63963156 159.31258528 77.92871094 159.32592773 C80.15364781 159.34139852 82.37703556 159.38156234 84.6015625 159.42578125 C85.28392975 159.42387283 85.966297 159.42196442 86.66934204 159.41999817 C90.04159701 159.50675356 91.74517768 159.79995975 94.43139648 161.90869141 C97.06055358 165.41396139 96.4768833 167.70805026 96 172 C94.18836733 174.67431489 93.12238923 174.95920359 90 176 C62.60705514 177.488747 37.77775153 173.33191056 12.3125 163.296875 C9.23516234 162.09206827 6.14398644 161.0160444 3 160 C4.70255933 176.21243062 11.19865198 186.77467272 23.55078125 197.140625 C32.41335485 203.64267262 40.88453749 208.08802146 52 207 C53.92585938 206.85691406 53.92585938 206.85691406 55.890625 206.7109375 C74.48773525 205.14103792 93.52932426 200.83248217 110.25 192.3515625 C113.54204134 190.733599 115.37992245 190.38381659 119 191 C122.32274404 193.45594125 123.77618008 194.9256644 124.625 199 C123.78295622 203.04181017 122.09262801 204.29968917 119 207 C116.67102316 208.31022634 114.50514953 209.40626228 112.0625 210.4375 C111.38300293 210.72971436 110.70350586 211.02192871 110.00341797 211.32299805 C94.66326255 217.63822777 77.85226728 221.4525985 61.375 223.125 C60.56160156 223.21136719 59.74820313 223.29773438 58.91015625 223.38671875 C56.94053614 223.59526676 54.97032756 223.79824533 53 224 C72.05178161 236.02617885 92.68491254 242.58790429 115.24121094 237.91699219 C129.14366281 234.5985168 141.04952621 227.438213 151.98828125 218.34765625 C155.07370138 215.87795189 156.6753617 215.00550234 160.6875 214.9375 C164.33322247 216.10688268 165.95096598 216.75569614 168 220 C168.0774778 224.26127893 167.65847419 226.27452318 164.7734375 229.453125 C155.03325309 238.39763237 143.85217315 245.21916064 132 251 C133.56020867 251.65134925 135.12328579 252.29582964 136.6875 252.9375 C137.55761719 253.29714844 138.42773438 253.65679687 139.32421875 254.02734375 C159.25081454 261.27073404 183.60771981 254.4630337 202 246 C204.07961278 244.86411793 206.14527436 243.70180356 208.1875 242.5 C211.2737959 240.72692063 213.40488378 239.5623812 217 239.875 C220 241 220 241 221.9375 242.625 C223.43699866 245.97682053 223.45377473 248.36980218 223 252 C211.61665043 265.92852109 187.9032982 270.95859565 171 273 C153.98408592 274.15207914 134.29981169 274.90360641 120 264 C117.74954574 261.83393778 115.69133556 259.63317732 114 257 C114 256.34 114 255.68 114 255 C113.34 255.33 112.68 255.66 112 256 C87.44056368 257.98593825 60.7089588 252.70251247 41 237.0625 C36.40075041 232.78359615 32.59802598 227.37894378 32 221 C31.21625 220.79375 30.4325 220.5875 29.625 220.375 C20.24759356 216.81805273 13.17227216 210.86556315 6 204 C5.29875 203.37351563 4.5975 202.74703125 3.875 202.1015625 C-5.94734786 193.00821702 -12.8068227 180.66210997 -14.3046875 167.27734375 C-14.42473068 162.96245832 -13.86824836 159.33035696 -12.6875 155.1875 C-12.08501884 153.02157928 -12.08501884 153.02157928 -12 151 C-13.95524698 148.20913543 -13.95524698 148.20913543 -17 146 C-27.55260165 135.67252052 -31.91655676 121.43576754 -32.375 106.9375 C-32.16145052 99.34124002 -30.95059874 91.38103781 -27.125 84.75 C-25.60921654 81.04475153 -26.56551959 79.14160976 -28.04296875 75.5390625 C-34.2140038 59.16692868 -32.13537774 39.48311868 -25.1640625 23.66796875 C-12.55189972 -3.23306508 -12.55189972 -3.23306508 0 0 Z " fill="#465B65" transform="translate(47,50)"/>
<path d="M0 0 C4.02703631 3.72109539 4.8263967 7.54878146 5.3125 12.8125 C5.38807129 13.55588623 5.46364258 14.29927246 5.54150391 15.06518555 C6.78643524 29.12043062 6.35612836 43.90227628 -2.875 55.3125 C-9.65987143 62.25360202 -18.32909597 66.43180669 -27.8125 68.1875 C-34.45151266 69.84725316 -37.39293368 74.3945198 -40.84667969 80.04541016 C-55.65240009 105.13740795 -65.45445465 131.80634768 -58.47314453 161.21972656 C-56.27819465 169.67127559 -53.45755972 177.87614737 -50.34765625 186.03125 C-49.88875 187.23740967 -49.42984375 188.44356934 -48.95703125 189.6862793 C-48.04263967 192.06398556 -47.11216612 194.43558302 -46.1640625 196.80004883 C-42.19356656 207.03629509 -42.19356656 207.03629509 -44 213 C-45.73687782 215.89479637 -47.05152682 216.01335881 -50.375 216.875 C-54.63918735 217.02204094 -55.73148343 216.67977756 -59 214 C-60.6411475 211.17190282 -61.74585623 208.18744542 -62.875 205.125 C-63.37990967 203.8097937 -63.37990967 203.8097937 -63.89501953 202.46801758 C-68.4279433 190.49664021 -72.57077392 178.33522584 -76 166 C-76.78375 166.763125 -77.5675 167.52625 -78.375 168.3125 C-82.38395265 171.7046907 -86.98057454 172.77986298 -92 174 C-91.06393428 186.1319044 -89.55766795 197.33646215 -86 209 C-74.07754408 248.83569396 -69.901426 292.35447241 -89.97192383 330.59594727 C-90.96102638 332.40965294 -91.97345405 334.20726767 -93 336 C-93.56589844 337.00417969 -94.13179688 338.00835937 -94.71484375 339.04296875 C-107.96576143 361.1486173 -129.57629943 373.81838157 -154 380 C-159.98045041 381.28046772 -165.96164419 381.93456273 -172.0546875 382.3828125 C-187.78314564 383.57493814 -201.77982517 386.59791441 -212.77124023 398.99829102 C-219.83661396 407.94952524 -224.01000115 418.31766743 -228.5625 428.6875 C-229.38099579 430.52591004 -230.200651 432.36380435 -231.02148438 434.20117188 C-234.06666018 441.03328386 -237.09585173 447.87163982 -240.03588867 454.74975586 C-240.35093857 455.48285477 -240.66598846 456.21595367 -240.99058533 456.9712677 C-241.56943389 458.3212405 -242.14345919 459.67329712 -242.71144104 461.02787781 C-246.14053838 469.01829687 -250.26495763 472.44044048 -258.125 475.875 C-265.42318265 478.73740411 -271.92530729 479.20840754 -279.6875 479.25 C-281.10192383 479.2809375 -281.10192383 479.2809375 -282.54492188 479.3125 C-292.55703081 479.3675494 -300.91959012 477.00089263 -309 471 C-309.66 470.34 -310.32 469.68 -311 469 C-312.93922394 469.33688677 -312.93922394 469.33688677 -315 470 C-329.5905962 470.89810935 -343.3853068 469.91994225 -355 460 C-361.48165569 453.55503293 -361.48165569 453.55503293 -363 449 C-363.82242188 448.96261719 -364.64484375 448.92523438 -365.4921875 448.88671875 C-380.24859929 448.01769219 -392.61156209 443.93281021 -403 433 C-406.07759236 429.11004823 -407.99301273 425.73872967 -408.6875 420.8125 C-409.26093588 417.96202263 -409.67374838 417.22029467 -412.12890625 415.5625 C-413.8960457 414.71975093 -415.67811189 413.9076994 -417.47265625 413.125 C-426.29217593 409.19915507 -431.81021888 400.34113532 -435.375 391.6875 C-439.07902503 381.94430374 -439.26404601 372.21683876 -435.328125 362.515625 C-431.79766975 355.82852741 -426.96003228 352.60893785 -420 350 C-417.68085681 349.39158177 -415.34208448 348.85491264 -412.9921875 348.37890625 C-412.30363678 348.23843872 -411.61508606 348.09797119 -410.90567017 347.95324707 C-408.5639341 347.47998795 -406.21979805 347.0203353 -403.875 346.5625 C-403.03799561 346.39692596 -402.20099121 346.23135193 -401.33862305 346.0607605 C-360.75778764 338.05367665 -319.89061509 331.36090868 -279.0625 324.75 C-277.86737793 324.55528107 -276.67225586 324.36056213 -275.44091797 324.15994263 C-272.09817496 323.61682833 -268.75442218 323.08052162 -265.41015625 322.546875 C-264.43534805 322.388134 -263.46053986 322.22939301 -262.45619202 322.06584167 C-257.92138476 321.35124186 -253.60893842 320.81033569 -249 321 C-248.61328125 319.94039063 -248.61328125 319.94039063 -248.21875 318.859375 C-246.9010213 315.76778074 -245.30653164 313.08227419 -243.5 310.25 C-242.8915625 309.28578125 -242.283125 308.3215625 -241.65625 307.328125 C-240 305 -240 305 -238 304 C-234.6875 303.5625 -234.6875 303.5625 -231 304 C-228.10025595 306.65295732 -226.17451859 308.44042562 -225.72729492 312.43701172 C-226.03456484 315.32485378 -226.77195962 316.86717139 -228.30078125 319.3203125 C-229.02491211 320.49400391 -229.02491211 320.49400391 -229.76367188 321.69140625 C-230.5303418 322.89603516 -230.5303418 322.89603516 -231.3125 324.125 C-231.81201172 324.93582031 -232.31152344 325.74664062 -232.82617188 326.58203125 C-238.41349249 335.53654508 -238.41349249 335.53654508 -242.39634705 336.70002747 C-243.82231956 336.92936226 -243.82231956 336.92936226 -245.27709961 337.16333008 C-246.90631096 337.43458458 -246.90631096 337.43458458 -248.56843567 337.71131897 C-249.75112534 337.89552902 -250.933815 338.07973907 -252.15234375 338.26953125 C-253.99773994 338.57176857 -253.99773994 338.57176857 -255.88041687 338.88011169 C-259.20846111 339.42303768 -262.53788349 339.95529481 -265.8683548 340.48298645 C-269.32371269 341.03325583 -272.77675229 341.59767995 -276.22998047 342.16113281 C-281.68697977 343.05012107 -287.14499894 343.93249687 -292.60400391 344.80908203 C-301.61635046 346.25761504 -310.62180875 347.74577779 -319.625 349.25 C-321.03157422 349.48413865 -322.43814973 349.71826958 -323.84472656 349.95239258 C-338.53251302 352.40251864 -353.19617542 354.98808702 -367.85321045 357.61529541 C-370.05714458 358.01024031 -372.26123365 358.40431275 -374.46533203 358.79833984 C-378.18345391 359.46356212 -381.90097517 360.13205565 -385.61807251 360.80297852 C-387.0079046 361.05365322 -388.39785294 361.30368453 -389.78793335 361.55297852 C-394.19667967 362.34456572 -398.5987939 363.1676385 -403 364 C-403.65009033 364.1152301 -404.30018066 364.23046021 -404.9699707 364.34918213 C-406.90464277 364.69270479 -408.83523713 365.05894819 -410.765625 365.42578125 C-412.45606934 365.7357605 -412.45606934 365.7357605 -414.18066406 366.05200195 C-417.41136781 367.13832189 -418.37043954 368.05357002 -420 371 C-421.2754527 378.29650869 -419.83682947 384.75044034 -416 391 C-413.26193302 394.82890115 -410.60886555 398.51301804 -406 400 C-398.0862279 399.86132409 -390.82799219 396.67221357 -383.5 393.9375 C-382.83347412 393.6924472 -382.16694824 393.44739441 -381.48022461 393.19491577 C-372.33498856 389.82844886 -363.54033002 386.14484761 -355.03125 381.36328125 C-351.69390463 379.86233597 -349.61627977 379.56258782 -346 380 C-343.0625 382.0625 -343.0625 382.0625 -341 385 C-340.93400821 388.76153189 -341.18687649 390.97848806 -343.5546875 393.953125 C-346.83568294 396.69951735 -350.32179654 398.39012478 -354.1875 400.1875 C-355.40566406 400.7597229 -355.40566406 400.7597229 -356.6484375 401.34350586 C-384.31335751 414 -384.31335751 414 -393 414 C-390.62672525 420.98021986 -387.16238075 424.74421312 -380.671875 428.26171875 C-374.06981121 431.22019073 -367.77687616 432.49846549 -360.74609375 430.29296875 C-347.23141575 424.1873528 -334.01536995 413.38547511 -323.2109375 403.3359375 C-320.77089189 401.09610076 -319.23502126 400.04316717 -315.9375 399.4375 C-312.17215466 400.15852358 -310.5245106 401.10423784 -308 404 C-307.18307949 407.53998888 -307.23003481 409.70957054 -309.12109375 412.87890625 C-318.6913216 424.69252916 -333.41891897 432.79670185 -346 441 C-345.43219077 445.1436754 -345.43219077 445.1436754 -342.5 448.125 C-334.72959224 452.28771844 -326.88779839 454.52327989 -318 453 C-313.34252519 450.42931585 -309.8438661 447.04544008 -306.3125 443.125 C-305.80066162 442.56490234 -305.28882324 442.00480469 -304.76147461 441.42773438 C-300.51904078 436.72072439 -296.57004221 431.80600741 -292.74145508 426.75830078 C-290.05177672 423.22968291 -287.35018746 419.9205368 -284 417 C-280.00797809 416.92996453 -277.84603384 417.41428426 -274.5625 419.6875 C-272.51379161 422.71958842 -272.66078858 424.38472041 -273 428 C-278.33234954 438.16529475 -287.90483263 447.90483263 -296 456 C-296 456.99 -296 457.98 -296 459 C-286.26809803 463.76664586 -275.12732098 463.21949603 -264.953125 459.94921875 C-261.33661994 458.19159729 -259.64846212 455.6773695 -258.04223633 452.07373047 C-257.68789017 451.28795624 -257.33354401 450.50218201 -256.96846008 449.69259644 C-256.59343857 448.84271149 -256.21841705 447.99282654 -255.83203125 447.1171875 C-255.43352463 446.22951691 -255.03501801 445.34184631 -254.62443542 444.42727661 C-253.34732488 441.57935949 -252.07956335 438.7273995 -250.8125 435.875 C-240.93041784 413.74451397 -240.93041784 413.74451397 -236.63671875 404.48046875 C-236.32652298 403.80059906 -236.01632721 403.12072937 -235.69673157 402.42025757 C-232.93767178 396.51883271 -229.4222217 391.74367986 -225 387 C-224.37480469 386.29617188 -223.74960938 385.59234375 -223.10546875 384.8671875 C-212.88732116 373.92065872 -198.17574636 366.26090262 -183.11254883 365.71020508 C-157.51615386 364.76198919 -133.87152612 357.9943676 -115.8125 338.75 C-99.28330674 319.22759267 -93.55417987 292.18524674 -93.6875 267.25 C-93.68932281 266.54179108 -93.69114563 265.83358215 -93.69302368 265.10391235 C-93.73788571 254.75481169 -94.28143512 245.05869007 -97 235 C-97.36903567 233.53562076 -97.73611092 232.07074654 -98.1015625 230.60546875 C-99.82827027 223.80154465 -101.70069223 217.04059846 -103.62109375 210.2890625 C-103.89203857 209.32500488 -104.1629834 208.36094727 -104.44213867 207.36767578 C-104.96344419 205.51719084 -105.49296505 203.66899132 -106.0324707 201.82373047 C-107.79791198 195.55091713 -108.63324691 189.50046347 -109 183 C-109.05027344 182.15276367 -109.10054688 181.30552734 -109.15234375 180.43261719 C-109.27098104 177.99576908 -109.33130037 175.56423411 -109.375 173.125 C-109.41238281 172.3103125 -109.44976562 171.495625 -109.48828125 170.65625 C-109.54850489 166.5476594 -109.38880008 164.56379815 -107.00390625 161.10546875 C-103.30504943 158.51290201 -99.89409579 157.33531643 -95.5625 156.1875 C-94.82451172 155.97158203 -94.08652344 155.75566406 -93.32617188 155.53320312 C-83.45913462 152.77043269 -83.45913462 152.77043269 -79 155 C-79.02320313 153.89785156 -79.04640625 152.79570312 -79.0703125 151.66015625 C-79.51265911 121.51691555 -72.36612233 90.45141902 -52.9375 66.625 C-49.22541903 61.90253283 -49.22541903 61.90253283 -48.875 56.125 C-49.20377311 54.73822019 -49.57411054 53.36009859 -50 52 C-52.08313474 41.58432628 -52.0411513 31.00005695 -46.62890625 21.625 C-39.94214479 12.13204368 -29.50020193 7.27206427 -19 3 C-17.84177734 2.51853516 -17.84177734 2.51853516 -16.66015625 2.02734375 C-11.43234753 0.05198545 -5.52188868 -1.44961499 0 0 Z M-78 156 C-77 158 -77 158 -77 158 Z " fill="#465A64" transform="translate(479,16)"/>
<path d="M0 0 C0.7528125 -0.03996094 1.505625 -0.07992187 2.28125 -0.12109375 C5.71203642 0.74264297 6.57460945 2.5005273 8.5 5.4375 C10.09598647 8.47643819 11.54113943 11.58098515 13 14.6875 C24.25258651 37.83024922 41.38158104 57.55304209 61.5 73.4375 C62.15291016 73.95618652 62.80582031 74.47487305 63.47851562 75.00927734 C72.22399587 81.94514057 81.08348907 88.64663602 90.23583984 95.03613281 C100.38344536 102.12836768 110.32296181 109.48065949 119.8125 117.4375 C120.61252441 118.10471069 120.61252441 118.10471069 121.42871094 118.78540039 C128.17745014 124.54251956 128.17745014 124.54251956 129 129.375 C128.31303325 133.58267131 126.9272611 134.95820473 123.5 137.4375 C120.1875 138.1875 120.1875 138.1875 116.5 137.4375 C114.45048868 136.04289 112.75310911 134.45241078 110.95703125 132.7421875 C101.99586302 124.3366402 91.95729951 117.27992825 81.78027344 110.44604492 C73.68960872 104.97366813 66.01861681 99.0158431 58.38134766 92.93261719 C56.78732992 91.66584264 55.18197853 90.41334981 53.57421875 89.1640625 C46.89013797 83.9404587 40.64996394 78.27087857 34.5 72.4375 C33.74517334 71.7256958 33.74517334 71.7256958 32.97509766 70.99951172 C20.27155997 58.94157035 10.39801581 45.48801755 1.5 30.4375 C1.11312012 29.79151855 0.72624023 29.14553711 0.32763672 28.47998047 C-2.5 23.67709247 -2.5 23.67709247 -2.5 21.4375 C-8.1291609 26.26249505 -11.17206791 32.45370372 -13.5 39.4375 C-13.59287771 41.12295724 -13.62997204 42.811993 -13.625 44.5 C-13.62757813 45.37785156 -13.63015625 46.25570312 -13.6328125 47.16015625 C-13.64833424 49.46948266 -13.64833424 49.46948266 -12.5 51.4375 C-12.14826148 55.23627599 -11.97298556 57.58110153 -14 60.875 C-16.86065252 62.66290783 -19.15478885 63.12232795 -22.53125 62.96484375 C-26.21830534 61.97723964 -27.47429729 59.56813147 -29.5 56.4375 C-32.70317611 46.82797168 -31.2381961 34.60374468 -27.1796875 25.53515625 C-21.56464455 15.17997239 -13.22371962 0.38493704 0 0 Z " fill="#455A64" transform="translate(171.5,49.5625)"/>
<path d="M0 0 C0.66 0 1.32 0 2 0 C2.80050781 1.48886719 2.80050781 1.48886719 3.6171875 3.0078125 C17.16206628 27.85240939 35.50035367 49.73268348 58 67 C58.72928711 67.56799316 59.45857422 68.13598633 60.20996094 68.72119141 C69.53377604 75.9822645 78.92381489 83.05592865 88.75 89.625 C98.60966613 96.22214783 107.83912354 103.59656389 116.68261719 111.50463867 C119.56597731 114.04079492 120.67713721 114.972167 124.625 115.3125 C125.73875 115.209375 126.8525 115.10625 128 115 C129.32 115 130.64 115 132 115 C132.66 115.66 133.32 116.32 134 117 C133.828125 119.3125 133.828125 119.3125 133.25 122 C133.06953125 122.886875 132.8890625 123.77375 132.703125 124.6875 C132 127 132 127 130 129 C129.35675781 128.31035156 128.71351563 127.62070313 128.05078125 126.91015625 C121.30645867 119.89644561 114.30430599 114.14890071 106 109 C105.41686035 108.63696777 104.8337207 108.27393555 104.23291016 107.89990234 C84.57045741 95.85591954 62.71547782 88.26209605 41.12158203 80.48583984 C-7.83156283 62.85015372 -7.83156283 62.85015372 -29 52 C-28.03603575 46.79459302 -27.12319499 42.40086567 -24 38 C-23.505 38.33 -23.01 38.66 -22.5 39 C-18.78330061 40.48667975 -16.0058044 40.31792098 -12 40 C-9.85219923 39.10242444 -9.85219923 39.10242444 -9 37 C-8.61972727 32.34608843 -8.61972727 32.34608843 -10 28 C-11.2263072 17.54623366 -7.60700939 9.57810039 -1.3671875 1.3984375 C-0.69042969 0.70621094 -0.69042969 0.70621094 0 0 Z " fill="#CCD5DA" transform="translate(167,71)"/>
<path d="M0 0 C4.61401076 0.61947367 8.86366007 1.94406765 13.2421875 3.49316406 C14.16346436 3.8115625 15.08474121 4.12996094 16.03393555 4.45800781 C22.43471361 6.73909085 28.29461975 9.23992913 33.7421875 13.36816406 C34.4640625 13.88894531 35.1859375 14.40972656 35.9296875 14.94628906 C42.55820781 20.1613749 46.48317594 27.00832728 47.7421875 35.36816406 C48.51042294 45.11593834 48.4417214 58.84894402 41.7265625 66.73535156 C37.26893409 70.40324266 33.08337679 69.32104764 27.546875 68.86816406 C16.85633475 67.46324707 5.31326037 63.23129443 -1.6328125 54.61816406 C-9.71607926 42.45910927 -11.43852225 27.37485198 -11.6953125 13.05566406 C-11.71754883 12.35691162 -11.73978516 11.65815918 -11.76269531 10.93823242 C-11.74828769 7.66650249 -11.24995651 5.35146736 -9.85546875 2.38769531 C-6.44200474 -0.26608047 -4.23497981 -0.22199491 0 0 Z " fill="#455A64" transform="translate(367.2578125,39.6318359375)"/>
<path d="M0 0 C1.72195885 4.45370838 -0.08980785 7.45906776 -1.91967773 11.61914062 C-6.55892664 21.77420766 -12.38719456 31.36423489 -18 41 C-18.5357666 41.92409668 -19.0715332 42.84819336 -19.62353516 43.80029297 C-55.95436804 106.36819356 -55.95436804 106.36819356 -70.671875 110.4765625 C-77.7583578 112.32797005 -84.96755384 113.34099835 -92.20535278 114.38934326 C-96.54843779 115.02039482 -100.88756346 115.67745656 -105.2265625 116.3359375 C-106.1227681 116.4718631 -107.01897369 116.6077887 -107.94233704 116.74783325 C-121.36430365 118.80077413 -134.72335546 121.22046811 -148.08998108 123.60229492 C-154.57229455 124.75461772 -161.06033377 125.87106261 -167.55078125 126.9765625 C-184.84391921 129.92639913 -202.13908174 132.8829002 -219.34527588 136.31005859 C-220.80459175 136.59961591 -222.26482913 136.88457329 -223.72601318 137.16455078 C-225.71735655 137.54817148 -227.70453095 137.95324719 -229.69140625 138.359375 C-230.79685791 138.58077148 -231.90230957 138.80216797 -233.04125977 139.03027344 C-236.37446673 140.1227314 -238.34948656 141.7454536 -241 144 C-241.66 144 -242.32 144 -243 144 C-243.10911227 142.43908834 -243.18609398 140.87591508 -243.25 139.3125 C-243.29640625 138.44238281 -243.3428125 137.57226562 -243.390625 136.67578125 C-242.86199771 133.05468428 -241.54216579 131.61056253 -239 129 C-236.06298828 127.91674805 -236.06298828 127.91674805 -232.5703125 127.26171875 C-231.92429581 127.135159 -231.27827911 127.00859924 -230.61268616 126.87820435 C-228.45342554 126.4610992 -226.28990291 126.07416236 -224.125 125.6875 C-222.5860757 125.39749979 -221.04742572 125.10604055 -219.5090332 124.81323242 C-214.34548791 123.84056116 -209.17371733 122.91680349 -204 122 C-203.0537677 121.83181763 -202.1075354 121.66363525 -201.13262939 121.49035645 C-189.50997277 119.42719158 -177.87953194 117.41172142 -166.24310303 115.42784119 C-158.79131067 114.15117419 -151.35354246 112.8024451 -143.92362976 111.40400696 C-137.84847382 110.27819456 -131.75649837 109.37223699 -125.63792419 108.5153656 C-116.27051946 107.18833461 -106.92831066 105.68974133 -97.58832359 104.18328381 C-94.11643052 103.62366247 -90.64361187 103.07251412 -87.16748047 102.53979492 C-83.11548714 101.91853187 -79.06968424 101.26312843 -75.0234375 100.60546875 C-73.77557465 100.41881149 -72.52771179 100.23215424 -71.24203491 100.0398407 C-70.0862796 99.84646622 -68.93052429 99.65309174 -67.73974609 99.45385742 C-66.72496185 99.29334396 -65.71017761 99.13283051 -64.66464233 98.967453 C-61.2356077 97.72247171 -60.02858858 95.97258294 -58 93 C-57.57227295 92.39494629 -57.1445459 91.78989258 -56.70385742 91.16650391 C-55.51125784 89.33161297 -54.34533816 87.48201579 -53.1875 85.625 C-52.55811523 84.67367187 -52.55811523 84.67367187 -51.91601562 83.703125 C-49.71491643 80.14945579 -48.9865218 78.45825872 -49.11328125 74.1484375 C-49.74231189 70.9317297 -49.74231189 70.9317297 -52 69 C-51.89418213 65.19055656 -50.42393833 62.47363153 -47.9375 59.6171875 C-44.30133215 56.5821603 -39.98475781 54.61573146 -35.765625 52.515625 C-32.90824375 51.29102115 -32.90824375 51.29102115 -32 49 C-31.93305983 47.58646454 -31.88020422 46.17223957 -31.8359375 44.7578125 C-31.35571396 40.15245035 -29.97786994 38.27421785 -26.4921875 35.34936523 C-25.87601563 34.86282471 -25.25984375 34.37628418 -24.625 33.875 C-13.62793801 24.4342589 -5.84525152 13.24430408 0 0 Z " fill="#FBFBFC" transform="translate(301,253)"/>
<path d="M0 0 C2.29815313 1.64273835 3.67341858 3.11665052 5.13671875 5.52734375 C5.64258855 13.78988387 -0.7038879 19.84780637 -5.78515625 25.765625 C-12.26402168 32.65945909 -21.06874243 39.87207531 -30.86328125 40.52734375 C-44.67166026 40.63410957 -54.34213833 36.34906431 -64.86328125 27.52734375 C-66.52880145 24.19630335 -66.44224997 21.11467937 -65.86328125 17.52734375 C-62.19939032 7.34676131 -55.6819255 -1.9689697 -46.30078125 -7.59765625 C-31.1550624 -14.15221773 -13.49049292 -7.45799072 0 0 Z " fill="#445A64" transform="translate(488.86328125,114.47265625)"/>
<path d="M0 0 C4.87801693 2.15716749 8.33887484 5.36707728 11 10 C11.17193607 13.25450424 10.07887905 15.95737181 9 19 C4.87636073 32.90755697 3.79805562 48.22104019 9 62 C2.16883972 59.51813225 -4.09129138 55.46766722 -7.5 48.875 C-12.76899048 37.11734531 -10.08517052 23.66130494 -6 12 C-4.18057255 7.89075654 -2.19141272 3.92262876 0 0 Z " fill="#FBFBFB" transform="translate(42,71)"/>
<path d="M0 0 C8.85144581 2.27291824 18.05155199 5.31750676 23.9765625 12.69921875 C26.52322277 18.42434432 25.95048378 26.14854867 24 32 C16.22519281 31.80203037 10.81150569 29.68007446 5.1875 24.25 C1.08123904 16.46971608 0.38993594 8.6996052 0 0 Z " fill="#54F89A" transform="translate(373,59)"/>
<path d="M0 0 C0.88544066 18.22532024 0.88544066 18.22532024 -4 26 C-9.1682492 31.12690321 -14.95878984 32.88234759 -22 34 C-23.95749699 27.60982386 -24.4222077 19.13083442 -22.22265625 12.7421875 C-18.63711732 7.81636724 -6.21468534 0 0 0 Z " fill="#54F799" transform="translate(468,34)"/>
<path d="M0 0 C4.64269152 1.0259767 8.6896153 2.46600635 12 6 C12.93391316 9.7654828 12.6190727 13.34430464 12.3125 17.1875 C11.67610956 27.48362751 12.81897137 35.41427016 17.6875 44.625 C18.34298828 45.88183594 18.34298828 45.88183594 19.01171875 47.1640625 C19.50091797 48.07285156 19.50091797 48.07285156 20 49 C13.28873129 47.48996454 8.4038358 43.40130374 4.484375 37.85546875 C3.18169225 35.61501138 2.06425593 33.36232567 1 31 C0.6803125 30.34773438 0.360625 29.69546875 0.03125 29.0234375 C-2.12734831 23.84679897 -2.27668982 18.78237918 -2.3125 13.25 C-2.31805908 12.51652344 -2.32361816 11.78304687 -2.3293457 11.02734375 C-2.27450454 6.92503698 -1.82309371 3.68976736 0 0 Z " fill="#FBFCFC" transform="translate(34,143)"/>
<path d="M0 0 C5.54050113 0.56825653 10.03715966 2.62886517 15 5 C14.93039063 6.23363281 14.93039063 6.23363281 14.859375 7.4921875 C14.46955966 19.54861895 17.93532247 26.83611781 24.51171875 36.75 C26 39 26 39 27 41 C22.55225629 39.56629507 19.48982732 37.1393909 16.125 34 C15.5997876 33.51233154 15.0745752 33.02466309 14.53344727 32.5222168 C7.44202903 25.76083529 0.46981635 17.43164044 -0.171875 7.28125 C-0.18556334 4.84472519 -0.13457964 2.43240245 0 0 Z " fill="#FBFBFB" transform="translate(50,210)"/>
<path d="M0 0 C0.845625 0.28875 1.69125 0.5775 2.5625 0.875 C-7.52168228 13.28355053 -7.52168228 13.28355053 -14.41796875 14.11328125 C-20.52113558 14.31852049 -24.16854073 12.9405763 -29.4375 9.875 C-27.99929563 4.60158399 -24.4336885 1.38108991 -20.4375 -2.125 C-13.92255384 -5.38247308 -6.38764292 -2.09050132 0 0 Z " fill="#54F799" transform="translate(470.4375,124.125)"/>
<path d="M0 0 C3.56986339 0.80427752 5.00990416 2.46360469 6.9765625 5.4453125 C7.1271757 9.73778856 6.63913329 11.66581746 3.8515625 14.9453125 C0.00507955 16.95217317 -1.90890291 16.71707774 -6.0234375 15.4453125 C-8.94556127 12.82289373 -9.89074887 11.25803036 -10.5234375 7.3828125 C-10.0234375 4.4453125 -10.0234375 4.4453125 -8.5234375 2.0703125 C-5.65119121 0.20335241 -3.42172324 -0.19223164 0 0 Z " fill="#4B5F69" transform="translate(351.0234375,153.5546875)"/>
<path d="M0 0 C4.29 0 8.58 0 13 0 C12.34 2.31 11.68 4.62 11 7 C6.00724943 5.72278474 3.42388092 3.82669043 0 0 Z " fill="#F4F5F6" transform="translate(99,273)"/>
</svg>
